HIERARCHY
ROOT SpineBase
{
  OFFSET 0.000000 0.000000 0.000000
  CHANNELS 6 Xposition Yposition Zposition Zrotation Xrotation Yrotation
  JOINT SpineMid
  {
    OFFSET 0.000000 30.403298 0.000000
    CHANNELS 3 Zrotation Xrotation Yrotation
    JOINT SpineShoulder
    {
      OFFSET 0.043374 22.591956 -0.709430
      CHANNELS 3 Zrotation Xrotation Yrotation
      JOINT Neck
      {
        OFFSET 0.038158 7.502070 -0.533962
        CHANNELS 3 Zrotation Xrotation Yrotation
        JOINT Head
        {
          OFFSET -5.586090 12.722967 -1.460820
          CHANNELS 3 Zrotation Xrotation Yrotation
          End Site
          {
            OFFSET 0 0 0
          }
        }
      }
      JOINT ShoulderLeft
      {
        OFFSET -14.783125 -5.201157 6.623305
        CHANNELS 3 Zrotation Xrotation Yrotation
        JOINT ElbowLeft
        {
          OFFSET 0.184523 -27.523269 2.989614
          CHANNELS 3 Zrotation Xrotation Yrotation
          JOINT WristLeft
          {
            OFFSET 9.877691 4.009227 -19.924230
            CHANNELS 3 Zrotation Xrotation Yrotation
            JOINT HandLeft
            {
              OFFSET 4.984794 1.197438 -1.322534
              CHANNELS 3 Zrotation Xrotation Yrotation
              JOINT HandTipLeft
              {
                OFFSET 4.349372 1.922015 -1.839494
                CHANNELS 3 Zrotation Xrotation Yrotation
                End Site
                {
                  OFFSET 0 0 0
                }
              }
              JOINT ThumbLeft
              {
                OFFSET -0.869004 6.600988 -0.749841
                CHANNELS 3 Zrotation Xrotation Yrotation
                End Site
                {
                  OFFSET 0 0 0
                }
              }
            }
          }
        }
      }
      JOINT ShoulderRight
      {
        OFFSET 14.122724 -1.795358 -8.934266
        CHANNELS 3 Zrotation Xrotation Yrotation
        JOINT ElbowRight
        {
          OFFSET 7.631174 -24.188028 -1.232869
          CHANNELS 3 Zrotation Xrotation Yrotation
          JOINT WristRight
          {
            OFFSET -2.082957 -20.704166 -5.330096
            CHANNELS 3 Zrotation Xrotation Yrotation
            JOINT HandRight
            {
              OFFSET -2.044182 -6.480862 -0.481952
              CHANNELS 3 Zrotation Xrotation Yrotation
              JOINT HandTipRight
              {
                OFFSET 0.043948 -6.694699 0.262239
                CHANNELS 3 Zrotation Xrotation Yrotation
                End Site
                {
                  OFFSET 0 0 0
                }
              }
              JOINT ThumbRight
              {
                OFFSET 2.889517 -0.157977 -0.613377
                CHANNELS 3 Zrotation Xrotation Yrotation
                End Site
                {
                  OFFSET 0 0 0
                }
              }
            }
          }
        }
      }
    }
  }
  JOINT HipLeft
  {
    OFFSET -6.022768 0.228081 -0.375777
    CHANNELS 3 Zrotation Xrotation Yrotation
    JOINT KneeLeft
    {
      OFFSET 3.117273 -28.924178 5.166590
      CHANNELS 3 Zrotation Xrotation Yrotation
      JOINT AnkleLeft
      {
        OFFSET 10.273401 -29.539322 3.278342
        CHANNELS 3 Zrotation Xrotation Yrotation
        JOINT FootLeft
        {
          OFFSET -4.026634 -3.758623 -11.903275
          CHANNELS 3 Zrotation Xrotation Yrotation
          End Site
          {
            OFFSET 0 0 0
          }
        }
      }
    }
  }
  JOINT HipRight
  {
    OFFSET 6.767685 1.649253 -6.040218
    CHANNELS 3 Zrotation Xrotation Yrotation
    JOINT KneeRight
    {
      OFFSET 10.045269 -28.268059 2.051686
      CHANNELS 3 Zrotation Xrotation Yrotation
      JOINT AnkleRight
      {
        OFFSET 5.949322 -30.573876 4.434644
        CHANNELS 3 Zrotation Xrotation Yrotation
        JOINT FootRight
        {
          OFFSET -2.997348 -7.278072 -5.433121
          CHANNELS 3 Zrotation Xrotation Yrotation
          End Site
          {
            OFFSET 0 0 0
          }
        }
      }
    }
  }
}
MOTION
Frames: 5
Frame Time: 0.033333
-37.234118 66.528500 347.935154 2.508405 0.213614 30.860034 -0.028012 -0.023870 -30.785901 -0.050784 -0.158143 0.099264 0.369441 -8.577158 -3.337393 0.000000 0.000000 0.000000 -29.708288 22.142131 2.443095 37.165466 -36.337275 51.499062 9.437803 -1.375015 42.122510 -26.641944 7.021933 -15.977318 0.000000 0.000000 0.000000 0.000000 0.000000 0.000000 -22.815119 37.143579 20.534477 -35.303750 11.148214 -12.460615 2.106676 -12.802415 -18.247065 -8.370921 1.629717 -0.818661 0.000000 0.000000 0.000000 0.000000 0.000000 0.000000 0.477065 2.175778 -30.347821 -13.193580 -4.522242 -3.454596 23.028525 -22.305981 -27.404964 0.000000 0.000000 0.000000 -8.003967 1.804709 -31.929787 3.478140 1.675705 0.783003 -7.474028 -21.432217 16.691776 0.000000 0.000000 0.000000
-37.191857 66.593889 347.933880 2.538697 0.173843 30.706342 -0.060864 0.005367 -30.631962 -0.071354 -0.169262 0.097611 0.333349 -8.493165 -3.333423 0.000000 0.000000 0.000000 -29.260962 21.465961 2.239927 36.453834 -34.432548 51.085593 7.194299 -0.939547 34.277175 -26.567643 0.778066 -8.444601 0.000000 0.000000 0.000000 0.000000 0.000000 0.000000 -24.807190 37.007400 21.395041 -35.050080 10.503466 -12.418568 4.085319 -18.364891 -18.440165 -12.772909 6.986026 0.594039 0.000000 0.000000 0.000000 0.000000 0.000000 0.000000 0.379331 2.212257 -30.209702 -13.074445 -4.444089 -3.401585 23.009152 -22.859265 -26.614512 0.000000 0.000000 0.000000 -8.016427 1.956357 -31.731260 3.486368 1.486022 0.725951 -7.275035 -21.273254 16.619817 0.000000 0.000000 0.000000
-37.141070 66.659638 347.938156 2.564480 0.123885 30.461108 -0.123212 0.029008 -30.386558 -0.101105 -0.190287 0.094536 0.363807 -8.338651 -3.309443 0.000000 0.000000 0.000000 -29.320570 21.333888 2.242430 36.045097 -32.954515 49.660555 5.409245 -1.345880 31.702611 -23.410748 -3.301723 -4.751109 0.000000 0.000000 0.000000 0.000000 0.000000 0.000000 -27.621495 36.594576 22.506621 -34.002185 8.870697 -12.479820 6.583894 -20.253323 -17.744318 -18.512488 8.697561 0.758583 0.000000 0.000000 0.000000 0.000000 0.000000 0.000000 0.250877 2.285229 -29.986831 -12.878391 -4.375401 -3.336553 21.905362 -19.139534 -21.282774 0.000000 0.000000 0.000000 -8.000421 2.130842 -31.426380 3.493381 1.259440 0.656159 -6.887103 -20.922864 16.338851 0.000000 0.000000 0.000000
-37.094909 66.718033 347.962230 2.563989 0.046915 30.293913 -0.183640 0.056408 -30.219317 -0.142049 -0.215713 0.089747 0.466631 -8.122804 -3.262938 0.000000 0.000000 0.000000 -29.589751 21.672011 2.401237 36.153481 -32.246433 48.910381 5.658907 -1.304582 29.522899 -21.997568 -5.920356 -1.204026 0.000000 0.000000 0.000000 0.000000 0.000000 0.000000 -30.760740 36.045185 23.718227 -32.058038 6.907188 -12.559286 7.719898 -22.106836 -17.387509 -22.455037 8.692768 0.106282 0.000000 0.000000 0.000000 0.000000 0.000000 0.000000 0.169883 2.411128 -29.840987 -12.668605 -4.360485 -3.288004 18.972462 -11.848550 -12.075618 0.000000 0.000000 0.000000 -7.988192 2.316515 -31.209540 3.590251 1.099742 0.612784 -6.560934 -20.419630 15.935581 0.000000 0.000000 0.000000
-37.056821 66.757762 348.006434 2.545046 -0.054412 30.270012 -0.224908 0.091055 -30.195179 -0.188387 -0.248020 0.084554 0.545344 -7.891816 -3.223211 0.000000 0.000000 0.000000 -29.766048 22.248929 2.624796 36.244591 -31.489386 48.370442 4.580055 -2.247249 30.183045 -21.162737 -9.276516 4.097622 0.000000 0.000000 0.000000 0.000000 0.000000 0.000000 -34.077224 35.512267 25.045188 -29.166026 5.363261 -12.466029 8.153756 -23.740031 -17.169325 -25.048956 10.391557 1.057341 0.000000 0.000000 0.000000 0.000000 0.000000 0.000000 0.157280 2.613553 -29.833283 -12.458908 -4.413158 -3.260664 13.908937 -3.349102 -0.903606 0.000000 0.000000 0.000000 -7.869697 2.527683 -31.119326 3.601537 0.911406 0.553528 -6.364796 -19.976806 15.646228 0.000000 0.000000 0.000000
